<svg width="65" height="55" viewBox="0 0 65 55" fill="none" xmlns="http://www.w3.org/2000/svg">
<path d="M53.971 54.739H53.973C54.046 54.745 54.12 54.76 54.193 54.76C55.6 54.76 56.864 53.76 57.141 52.33L64.553 14.087C64.866 12.466 63.798 10.884 62.178 10.57L41.964 6.65297L40.678 12.515L58.091 15.889L51.82 48.243L6.51603 39.464L12.786 7.11097L25.328 9.54197L26.16 3.59197L10.982 0.649971C10.791 0.612971 10.601 0.594971 10.414 0.594971C9.00703 0.594971 7.74303 1.59497 7.46603 3.02397L0.0550335 41.268C-0.258966 42.888 0.809034 44.47 2.43003 44.784L53.626 54.707C53.74 54.729 53.855 54.73 53.971 54.739Z" fill="#F0C42E"/>
</svg>
