<svg width="41" height="33" viewBox="0 0 41 33" fill="none" xmlns="http://www.w3.org/2000/svg">
<path d="M16.9255 33C24.7956 33 31.4088 27.4543 33.3034 19.9423L38.6015 20.7568C38.7052 20.7729 38.8099 20.7809 38.9117 20.7809C39.9302 20.7809 40.8218 20.0103 40.9768 18.9396C41.1474 17.7608 40.3576 16.6621 39.2169 16.487L33.8471 15.6614C33.849 15.6154 33.851 15.5704 33.851 15.5234C33.851 15.3412 33.8452 15.1611 33.8374 14.981C33.8374 14.981 33.4003 8.45864 32.7966 5.73783C32.1948 3.01701 30.3399 2.43963 30.3399 2.43963C20.8717 0.226151 11.1787 0 8.65511 0C6.13155 0 5.59466 1.33289 5.59466 1.33289L2.54197 6.33222L2.53228 6.32922C2.45863 6.4503 2.39079 6.57438 2.32004 6.69747L2.29388 6.74049C0.838276 9.32222 0 12.3202 0 15.5234C0 25.1758 7.57843 33 16.9255 33V33Z" fill="#3A3A3A"/>
</svg>
