<svg width="115" height="122" viewBox="0 0 115 122" fill="none" xmlns="http://www.w3.org/2000/svg">
<path d="M108.395 35.869V35.867L82.4337 33.6833L73.4574 12.4187C73.4574 12.4187 73.0099 9.62468 67.6247 3.88147C62.2376 -1.86174 51.3159 0.466968 51.3159 0.466968C51.3159 0.466968 28.1267 4.96826 20.497 6.82962C12.8663 8.69299 12.5673 16.7639 12.5673 16.7639L9.57524 38.9592L8.95392 43.397C8.94906 43.4232 8.94615 43.4534 8.94227 43.4796L8.92479 43.6075H8.92673C8.8879 43.9218 8.86557 44.2411 8.86557 44.5654C8.86557 48.699 12.0955 52.0481 16.0788 52.0481C20.0621 52.0481 23.2911 48.699 23.2911 44.5654C23.2911 44.2451 23.2707 43.9308 23.2318 43.6216L27.8277 21.8846L39.0475 20.4886L37.3107 26.4111L46.92 28.344C48.4927 28.6593 49.5295 30.2537 49.2257 31.8864L42.0299 70.4058C41.761 71.8461 40.5339 72.8534 39.1679 72.8534C39.098 72.8534 39.0262 72.8372 38.9543 72.8322C38.2476 72.937 37.701 72.797 37.701 72.797L28.5753 70.9346L25.5832 88.1632L2.71054 108.673C1.05917 110.044 0 112.151 0 114.516C0 118.65 3.22896 122 7.21226 122C9.18788 122 10.9771 121.176 12.28 119.839C12.28 119.839 39.1961 97.6301 40.9921 96.078C42.7881 94.5269 43.6842 92.1971 43.6842 92.1971C43.6842 92.1971 48.0927 78.1484 49.2946 75.2012C50.1179 73.1827 54.0827 74.1144 54.0827 74.1144L76.3 82.8078L83.6929 112.08C83.7725 112.714 83.9278 113.323 84.1521 113.897H84.154C85.22 116.645 87.814 118.584 90.842 118.584C94.8263 118.584 98.0552 115.233 98.0552 111.101C98.0552 110.497 97.9853 109.913 97.8543 109.352C97.0368 104.351 93.3846 82.1108 92.4555 77.2962C91.409 71.8632 87.9693 70.3121 87.9693 70.3121C87.9693 70.3121 67.3228 58.6736 65.9772 57.896C64.6307 57.1205 64.9307 55.102 64.9307 55.102L68.746 40.6674L71.4381 46.5657C71.4381 46.5657 73.0099 49.8634 75.403 49.9812L107.787 50.8072C111.771 50.8072 115 47.4571 115 43.3225C115 39.4044 112.095 36.1903 108.395 35.869V35.869Z" fill="#3A3A3A"/>
</svg>
